<svg width="200px" height="200px" viewBox="-2.4 -2.4 28.80 28.80" fill="none" xmlns="http://www.w3.org/2000/svg"><g id="SVGRepo_bgCarrier" stroke-width="0"><path transform="translate(-2.4, -2.4), scale(0.8999999999999999)" d="M16,27.147384948371087C18.508712335130127,27.166189014379206,21.018826309423286,29.702298249837824,23.259352747131796,28.573567788096977C25.467130240865217,27.461335560892625,24.90389512945403,23.985657571187634,26.310870231219432,21.95298370357384C27.895115647732645,19.664205278147037,31.407722907223715,18.727735781325958,31.962518119636705,16C32.50853417168549,13.315428307548013,31.112155947513028,10.271670052885515,29.05462123902761,8.462910913478806C27.047131198526074,6.698145564417947,23.970682070650067,7.325924740124182,21.374085884212576,6.691810204305115C19.543197662394586,6.244689145983149,17.83895241392322,5.68754496122046,16,5.2748429610887C13.649323768058357,4.747298705326894,11.387783162296138,3.4454385369099687,9.02596433657934,3.920615897158088C6.381193349847726,4.452720765766937,2.7936425120671347,5.40949649880595,2.224040315000293,8.046445967519977C1.580292987316409,11.026647207022723,5.327941661823077,13.152093691693597,6.416720660951208,15.999999999999998C7.038948487794161,17.6275539431683,6.878206908215564,19.36594615253462,7.205849506604819,21.07730515465578C7.687826613585536,23.594791784608024,6.693717534717647,27.009156595560775,8.803206685601783,28.465211672109717C10.845111668055598,29.874617411070904,13.518981123618175,27.128788458823212,16,27.147384948371087" fill="#b2d4fb" strokewidth="0"></path></g><g id="SVGRepo_tracerCarrier" stroke-linecap="round" stroke-linejoin="round"></g><g id="SVGRepo_iconCarrier"> <path d="M20.2083 7.82141L12.5083 12.2814C12.1983 12.4614 11.8083 12.4614 11.4883 12.2814L3.78826 7.82141C3.23826 7.50141 3.09826 6.75141 3.51826 6.28141C3.80826 5.95141 4.13826 5.68141 4.48826 5.49141L9.90826 2.49141C11.0683 1.84141 12.9483 1.84141 14.1083 2.49141L19.5283 5.49141C19.8783 5.68141 20.2083 5.96141 20.4983 6.28141C20.8983 6.75141 20.7583 7.50141 20.2083 7.82141Z" fill="#0071f2"></path> <path d="M11.4305 14.1389V20.9589C11.4305 21.7189 10.6605 22.2189 9.98047 21.8889C7.92047 20.8789 4.45047 18.9889 4.45047 18.9889C3.23047 18.2989 2.23047 16.5589 2.23047 15.1289V9.9689C2.23047 9.1789 3.06047 8.6789 3.74047 9.0689L10.9305 13.2389C11.2305 13.4289 11.4305 13.7689 11.4305 14.1389Z" fill="#0071f2"></path> <path d="M12.5703 14.1389V20.9589C12.5703 21.7189 13.3403 22.2189 14.0203 21.8889C16.0803 20.8789 19.5503 18.9889 19.5503 18.9889C20.7703 18.2989 21.7703 16.5589 21.7703 15.1289V9.9689C21.7703 9.1789 20.9403 8.6789 20.2603 9.0689L13.0703 13.2389C12.7703 13.4289 12.5703 13.7689 12.5703 14.1389Z" fill="#0071f2"></path> </g></svg>